<?xml version="1.0" standalone="no"?>
<!DOCTYPE svg PUBLIC "-//W3C//DTD SVG 20010904//EN"
 "http://www.w3.org/TR/2001/REC-SVG-20010904/DTD/svg10.dtd">
<svg version="1.0" xmlns="http://www.w3.org/2000/svg"
 width="80.000000pt" height="80.000000pt" viewBox="0 0 80.000000 80.000000"
 preserveAspectRatio="xMidYMid meet">

<g transform="translate(0.000000,80.000000) scale(0.100000,-0.100000)"
fill="#000000" stroke="none">
<path d="M300 725 c-205 -57 -313 -280 -226 -470 104 -228 430 -273 592 -82
83 98 105 247 52 360 -72 154 -253 237 -418 192z m62 -180 c22 -11 35 -10 82
6 46 16 62 17 103 8 55 -13 92 -40 111 -82 25 -57 8 -140 -40 -184 -50 -46
-150 -49 -156 -5 -9 57 60 152 109 152 29 0 35 28 11 52 -17 17 -33 21 -81 21
-64 0 -91 -13 -91 -44 0 -11 -11 -24 -25 -31 -14 -6 -25 -17 -25 -23 0 -7 11
-20 25 -29 69 -45 -18 -148 -112 -132 -71 13 -99 26 -116 56 l-18 30 34 0 c22
0 37 -6 41 -16 9 -22 115 -16 130 9 14 22 -3 51 -33 55 -28 4 -30 52 -2 52 23
0 44 24 39 46 -7 38 -119 40 -139 3 -6 -12 -21 -19 -39 -19 -35 0 -35 1 -15
40 27 52 133 70 207 35z"/>
<path d="M548 393 c-14 -3 -48 -58 -48 -77 0 -3 15 -6 34 -6 27 0 39 7 55 29
37 52 22 71 -41 54z"/>
</g>
</svg>
