<?xml version="1.0" standalone="no"?>
<!DOCTYPE svg PUBLIC "-//W3C//DTD SVG 20010904//EN"
 "http://www.w3.org/TR/2001/REC-SVG-20010904/DTD/svg10.dtd">
<svg version="1.0" xmlns="http://www.w3.org/2000/svg"
 width="248.000000pt" height="248.000000pt" viewBox="0 0 248.000000 248.000000"
 preserveAspectRatio="xMidYMid meet">

<g transform="translate(0.000000,248.000000) scale(0.100000,-0.100000)"
fill="#000000" stroke="none">
<path d="M540 1841 c-167 -54 -269 -202 -245 -357 17 -114 197 -226 386 -241
85 -6 80 -10 93 68 6 34 5 37 -24 43 -44 8 -64 60 -57 148 13 152 110 235 265
226 134 -7 224 -96 226 -222 2 -106 -42 -146 -170 -154 l-72 -4 -6 -50 c-4
-27 -4 -52 -2 -57 3 -5 37 -10 74 -13 84 -6 142 -32 162 -73 10 -20 15 -59 15
-115 0 -75 -3 -91 -28 -133 -53 -90 -163 -132 -280 -107 -111 23 -176 109
-177 232 0 37 -3 69 -7 71 -7 4 -103 -12 -328 -55 l-70 -14 2 -60 c3 -110 73
-216 179 -269 l59 -30 260 0 260 0 57 27 c70 32 129 93 164 166 24 50 27 69
28 157 0 113 -15 166 -65 228 l-31 38 35 38 c19 21 38 48 41 59 8 25 3 23 168
57 l137 28 6 46 c9 68 34 119 77 155 104 89 289 71 367 -36 42 -57 52 -119 49
-298 l-3 -155 -40 -8 c-101 -21 -144 -39 -189 -78 -79 -69 -116 -174 -119
-333 l-2 -91 110 0 c134 1 190 21 260 96 86 92 85 85 85 489 0 352 0 355 -24
405 -31 66 -87 122 -155 154 -56 26 -56 26 -321 26 l-265 0 -54 -30 c-30 -16
-70 -45 -88 -64 l-33 -34 -39 36 c-22 20 -64 49 -93 64 l-53 28 -250 2 c-137
1 -261 -2 -275 -6z m1543 -829 c-5 -112 -87 -204 -193 -214 l-35 -3 3 45 c7
113 61 192 149 216 73 20 78 17 76 -44z"/>
</g>
</svg>
